<?xml version="1.0" encoding="UTF-8" standalone="no"?>
<!-- Created with Inkscape (http://www.inkscape.org/) -->

<svg
   xmlns:dc="http://purl.org/dc/elements/1.1/"
   xmlns:cc="http://creativecommons.org/ns#"
   xmlns:rdf="http://www.w3.org/1999/02/22-rdf-syntax-ns#"
   xmlns:svg="http://www.w3.org/2000/svg"
   xmlns="http://www.w3.org/2000/svg"
   xmlns:xlink="http://www.w3.org/1999/xlink"
   xmlns:sodipodi="http://sodipodi.sourceforge.net/DTD/sodipodi-0.dtd"
   xmlns:inkscape="http://www.inkscape.org/namespaces/inkscape"
   version="1.0"
   width="65"
   height="156"
   id="svg2318"
   sodipodi:docname="bar_meter_vertical.svg"
   inkscape:version="0.92.4 (5da689c313, 2019-01-14)">
  <sodipodi:namedview
     pagecolor="#ffffff"
     bordercolor="#666666"
     borderopacity="1"
     objecttolerance="10"
     gridtolerance="10"
     guidetolerance="10"
     inkscape:pageopacity="0"
     inkscape:pageshadow="2"
     inkscape:window-width="1280"
     inkscape:window-height="977"
     id="namedview76"
     showgrid="false"
     inkscape:zoom="4"
     inkscape:cx="-2.8419927"
     inkscape:cy="82.031419"
     inkscape:window-x="0"
     inkscape:window-y="0"
     inkscape:window-maximized="1"
     inkscape:current-layer="svg2318" />
  <metadata
     id="metadata4420">
    <rdf:RDF>
      <cc:Work
         rdf:about="">
        <dc:format>image/svg+xml</dc:format>
        <dc:type
           rdf:resource="http://purl.org/dc/dcmitype/StillImage" />
        <dc:title />
      </cc:Work>
    </rdf:RDF>
  </metadata>
  <defs
     id="defs2320">
    <linearGradient
       id="linearGradient4548-1">
      <stop
         id="stop4550-1"
         style="stop-color:#f0f0f0;stop-opacity:1"
         offset="0" />
      <stop
         id="stop4552-7"
         style="stop-color:#f0f0f0;stop-opacity:0"
         offset="1" />
    </linearGradient>
    <linearGradient
       x1="105.50379"
       y1="26.5"
       x2="105.50379"
       y2="71.451363"
       id="linearGradient11303"
       xlink:href="#linearGradient4548-1"
       gradientUnits="userSpaceOnUse"
       gradientTransform="matrix(2,0,0,1,-48.007582,0)" />
    <linearGradient
       x1="105.50379"
       y1="26.5"
       x2="105.50379"
       y2="71.451363"
       id="linearGradient11305"
       xlink:href="#linearGradient4548-1"
       gradientUnits="userSpaceOnUse"
       gradientTransform="matrix(2,0,0,1,-48.007582,0)" />
    <linearGradient
       x1="105.50379"
       y1="26.5"
       x2="105.50379"
       y2="71.451363"
       id="linearGradient11307"
       xlink:href="#linearGradient4548-1"
       gradientUnits="userSpaceOnUse"
       gradientTransform="matrix(2,0,0,1,-48.007582,0)" />
  </defs>
  <rect
     width="132"
     height="16"
     rx="1.4393399"
     ry="1.4393399"
     x="12"
     y="-41"
     transform="matrix(0,1,-1,0,0,0)"
     id="background"
     style="opacity:0.19101126;fill:#cecece;fill-opacity:1;stroke:none" />
  <rect
     width="65"
     height="12"
     x="0"
     y="0"
     id="label0"
     style="fill:#d88d00;fill-opacity:1;fill-rule:evenodd;stroke:none" />
  <rect
     width="65"
     height="12"
     x="0"
     y="144"
     id="label1"
     style="fill:#8f267c;fill-opacity:1;fill-rule:evenodd;stroke:none" />
  <rect
     width="65"
     height="12"
     x="45.460312"
     y="-19.605326"
     transform="matrix(0,1,-1,0,0,0)"
     id="label2"
     style="fill:#5f5fff;fill-opacity:1;fill-rule:evenodd;stroke:none" />
  <rect
     width="3.4471455"
     height="3.5355339"
     x="47.497639"
     y="54.045017"
     id="hint-stretch-borders"
     style="fill:#1a1a1a;fill-opacity:1;fill-rule:nonzero;stroke:none" />
  <path
     d="m 45.472524,88.077415 1,0 0,-5 -1,0 0,5 z"
     id="background-top"
     style="fill:#c8c8c8;fill-opacity:1;stroke:none" />
  <path
     d="m 45.472524,83.077415 1,0 0,-1 c -0.537066,0.04959 -0.96811,0.458337 -1,1 z"
     id="background-topright"
     style="fill:#c8c8c8;fill-opacity:1;stroke:none" />
  <path
     d="m 45.472524,88.077415 c 0.03171,0.538668 0.467126,0.946442 1,1 l 0,-1 -1,0 z"
     id="background-topleft"
     style="fill:#c8c8c8;fill-opacity:1;stroke:none" />
  <path
     d="m 46.472524,88.077415 10,0 0,-5 -10,0 0,5 z"
     id="background-center"
     style="fill:#c8c8c8;fill-opacity:1;stroke:none" />
  <path
     d="m 46.472524,89.077415 10,0 0,-1 -10,0 0,1 z"
     id="background-left"
     style="fill:#c8c8c8;fill-opacity:1;stroke:none" />
  <path
     d="m 46.472524,83.077415 10,0 0,-1 -10,0 0,1 z"
     id="background-right"
     style="fill:#c8c8c8;fill-opacity:1;stroke:none" />
  <path
     d="m 57.472524,88.077415 -1,0 0,-5 1,0 0,5 z"
     id="background-bottom"
     style="fill:#c9c9c9;fill-opacity:1;stroke:none" />
  <path
     d="m 57.472524,83.077415 -1,0 0,-1 c 0.537066,0.04959 0.96811,0.458337 1,1 z"
     id="background-bottomright"
     style="fill:#c8c8c8;fill-opacity:1;stroke:none" />
  <path
     d="m 57.472524,88.077415 c -0.03171,0.538668 -0.467126,0.946442 -1,1 l 0,-1 1,0 z"
     id="background-bottomleft"
     style="fill:#c8c8c8;fill-opacity:1;stroke:none" />
  <g
     transform="matrix(0,-1,1,0,-8.401806,126.01676)"
     id="bar-active-top">
    <path
       d="m 48,54 0,2 2.99587,0 0,-2 L 48,54 z"
       id="path3371"
       style="fill:none;stroke:none" />
    <g
       id="g882"
       style="fill:#d88d00;fill-opacity:1">
      <path
         style="fill:#d88d00;fill-opacity:1;stroke:none"
         id="path3459"
         d="m 48,55 0,1 2.99587,0 0,-1 L 48,55 z" />
    </g>
  </g>
  <g
     transform="matrix(0,-1,1,0,-8.401806,126.01676)"
     id="bar-active-topleft">
    <path
       d="m 46,54 0,2 2,0 0,-2 -2,0 z"
       id="path3355"
       style="fill:none;stroke:none" />
    <path
       d="m 48,55 c -0.538668,0.03171 -0.946442,0.467126 -1,1 l 1,0 0,-1 z"
       id="path3457"
       style="fill:#d88d00;fill-opacity:1;stroke:none" />
  </g>
  <path
     d="m 47.598194,78.012625 8,0 0,-2.99587 -8,0 0,2.99587 z"
     id="bar-active-center"
     style="fill:#d88d00;fill-opacity:1;stroke:none" />
  <g
     transform="matrix(0,-1,1,0,-8.401806,126.01676)"
     id="bar-active-left">
    <path
       d="m 46,56 0,8 2,0 0,-8 -2,0 z"
       id="path3347"
       style="opacity:0;fill:url(#linearGradient11303);fill-opacity:1;stroke:none" />
    <path
       d="m 47.003791,56 0,8 1,0 0,-8 -1,0 z"
       id="path3455"
       style="fill:#d88d00;fill-opacity:1;stroke:none" />
  </g>
  <g
     transform="matrix(0,1,1,0,-8.401806,27.01677)"
     id="bar-active-topright">
    <path
       d="m 46,54 0,2 2,0 0,-2 -2,0 z"
       id="path3381"
       style="fill:none;stroke:none" />
    <path
       d="m 48,55 c -0.538668,0.03171 -0.946442,0.467126 -1,1 l 1,0 0,-1 z"
       id="path3383"
       style="fill:#d88d00;fill-opacity:1;stroke:none" />
  </g>
  <g
     transform="matrix(0,1,1,0,-8.401806,27.01297)"
     id="bar-active-right"
     style="fill:#a9cfeb;fill-opacity:0.5098038">
    <path
       d="m 46,56 0,8 2,0 0,-8 -2,0 z"
       id="path3389"
       style="opacity:0;fill:#a9cfeb;fill-opacity:0.5098038;stroke:none" />
    <path
       d="m 47.003791,56 0,8 1,0 0,-8 -1,0 z"
       id="path3391"
       style="fill:#d88d00;fill-opacity:1;stroke:none" />
  </g>
  <g
     transform="matrix(0,-1,1,0,-8.401806,126.01676)"
     id="bar-active-bottom">
    <path
       d="m 48.00413,65 0,-1 2.99587,0 0,1 -2.99587,0 z"
       id="path3463"
       style="fill:#d88d00;fill-opacity:1;stroke:none" />
    <path
       d="m 48,66 0,-2 2.99587,0 0,2 L 48,66 z"
       id="path3399"
       style="fill:none;stroke:none" />
  </g>
  <g
     transform="matrix(0,-1,1,0,-8.401806,126.01676)"
     id="bar-active-bottomleft">
    <path
       d="m 48.003791,65 c -0.538668,-0.03171 -0.946442,-0.467126 -1,-1 l 1,0 0,1 z"
       id="mar-active-bottomleft"
       style="fill:#d88d00;fill-opacity:1;stroke:none" />
    <path
       d="m 46,66 0,-2 2,0 0,2 -2,0 z"
       id="path3405"
       style="fill:none;stroke:none" />
  </g>
  <g
     transform="matrix(0,-1,1,0,-8.401806,126.01676)"
     id="bar-active-bottomright">
    <path
       d="m 51.003791,65 0,-1 1,0 c -0.04959,0.537066 -0.458337,0.96811 -1,1 z"
       id="path3461"
       style="fill:#d88d00;fill-opacity:1;stroke:none" />
    <path
       d="m 52.999995,66 0,-2 -2,0 0,2 2,0 z"
       id="path3411"
       style="fill:none;stroke:none" />
  </g>
  <g
     transform="matrix(0,-1,1,0,-8.534389,117.70825)"
     id="bar-inactive-top">
    <path
       d="m 48,54 0,2 2.99587,0 0,-2 L 48,54 z"
       id="path3467"
       style="fill:none;stroke:none" />
    <path
       d="m 48,55 0,1 2.99587,0 0,-1 L 48,55 z"
       id="path3469"
       style="fill:#8f267c;fill-opacity:1;stroke:none" />
  </g>
  <g
     transform="matrix(0,-1,1,0,-8.534389,117.70825)"
     id="bar-inactive-topleft">
    <path
       d="m 46,54 0,2 2,0 0,-2 -2,0 z"
       id="path3473"
       style="fill:none;stroke:none" />
    <path
       d="m 48,55 c -0.538668,0.03171 -0.946442,0.467126 -1,1 l 1,0 0,-1 z"
       id="path3475"
       style="fill:#8f267c;fill-opacity:1;stroke:none" />
  </g>
  <path
     d="m 47.465611,69.70412 8,0 0,-2.99587 -8,0 0,2.99587 z"
     id="bar-inactive-center"
     style="fill:#8f267c;fill-opacity:1;stroke:none" />
  <g
     transform="matrix(0,-1,1,0,-8.534389,117.70825)"
     id="bar-inactive-left">
    <path
       d="m 46,56 0,8 2,0 0,-8 -2,0 z"
       id="path3481"
       style="opacity:0;fill:url(#linearGradient11305);fill-opacity:1;stroke:none" />
    <path
       d="m 47.003791,56 0,8 1,0 0,-8 -1,0 z"
       id="path3483"
       style="fill:#8f267c;fill-opacity:1;stroke:none" />
  </g>
  <g
     transform="matrix(0,1,1,0,-8.534389,18.70826)"
     id="bar-inactive-topright">
    <path
       d="m 46,54 0,2 2,0 0,-2 -2,0 z"
       id="path3487"
       style="fill:none;stroke:none" />
    <path
       d="m 48,55 c -0.538668,0.03171 -0.946442,0.467126 -1,1 l 1,0 0,-1 z"
       id="path3489"
       style="fill:#8f267c;fill-opacity:1;stroke:none" />
  </g>
  <g
     transform="matrix(0,1,1,0,-8.534389,18.70446)"
     id="bar-inactive-right">
    <path
       d="m 46,56 0,8 2,0 0,-8 -2,0 z"
       id="path3493"
       style="opacity:0;fill:url(#linearGradient11307);fill-opacity:1;stroke:none" />
    <path
       d="m 47.003791,56 0,8 1,0 0,-8 -1,0 z"
       id="path3495"
       style="fill:#8f267c;fill-opacity:1;stroke:none" />
  </g>
  <g
     transform="matrix(0,-1,1,0,-8.534389,117.70825)"
     id="bar-inactive-bottom">
    <path
       d="m 48.00413,65 0,-1 2.99587,0 0,1 -2.99587,0 z"
       id="path3499"
       style="fill:#8f267c;fill-opacity:1;stroke:none" />
    <path
       d="m 48,66 0,-2 2.99587,0 0,2 L 48,66 z"
       id="path3501"
       style="fill:none;stroke:none" />
  </g>
  <g
     transform="matrix(0,-1,1,0,-8.534389,117.70825)"
     id="bar-inactive-bottomleft">
    <path
       d="m 48.003791,65 c -0.538668,-0.03171 -0.946442,-0.467126 -1,-1 l 1,0 0,1 z"
       id="path3505"
       style="fill:#8f267c;fill-opacity:1;stroke:none" />
    <path
       d="m 46,66 0,-2 2,0 0,2 -2,0 z"
       id="path3507"
       style="fill:none;stroke:none" />
  </g>
  <g
     transform="matrix(0,-1,1,0,-8.534389,117.70825)"
     id="bar-inactive-bottomright">
    <path
       d="m 51.003791,65 0,-1 1,0 c -0.04959,0.537066 -0.458337,0.96811 -1,1 z"
       id="path3511"
       style="fill:#8f267c;fill-opacity:1;stroke:none" />
    <path
       d="m 52.999995,66 0,-2 -2,0 0,2 2,0 z"
       id="path3513"
       style="fill:none;stroke:none" />
  </g>
</svg>
